<svg width="14" height="12" viewBox="0 0 14 12" fill="none" xmlns="http://www.w3.org/2000/svg">
<g id="&#229;&#189;&#162;&#231;&#138;&#182;&#231;&#187;&#147;&#229;&#144;&#136; 2">
<path id="&#229;&#189;&#162;&#231;&#138;&#182;&#231;&#187;&#147;&#229;&#144;&#136;" fill-rule="evenodd" clip-rule="evenodd" d="M0.333984 2.66667C0.333984 1.19391 1.52789 0 3.00065 0H11.0007C12.4734 0 13.6673 1.19391 13.6673 2.66667V9.33333C13.6673 10.8061 12.4734 12 11.0007 12H3.00065C1.52789 12 0.333984 10.8061 0.333984 9.33333V2.66667ZM2.33398 6.66667C2.33398 6.29848 2.63246 6 3.00065 6H7.00065C7.36884 6 7.66732 6.29848 7.66732 6.66667C7.66732 7.03486 7.36884 7.33333 7.00065 7.33333H3.00065C2.63246 7.33333 2.33398 7.03486 2.33398 6.66667ZM9.66732 6C9.29913 6 9.00065 6.29848 9.00065 6.66667C9.00065 7.03486 9.29913 7.33333 9.66732 7.33333H11.0007C11.3688 7.33333 11.6673 7.03486 11.6673 6.66667C11.6673 6.29848 11.3688 6 11.0007 6H9.66732ZM6.33398 9.33333C6.33398 8.96514 6.63246 8.66667 7.00065 8.66667H11.0007C11.3688 8.66667 11.6673 8.96514 11.6673 9.33333C11.6673 9.70152 11.3688 10 11.0007 10H7.00065C6.63246 10 6.33398 9.70152 6.33398 9.33333ZM3.00065 8.66667C2.63246 8.66667 2.33398 8.96514 2.33398 9.33333C2.33398 9.70152 2.63246 10 3.00065 10H4.33398C4.70217 10 5.00065 9.70152 5.00065 9.33333C5.00065 8.96514 4.70217 8.66667 4.33398 8.66667H3.00065Z" fill="white" fill-opacity="0.6"/>
</g>
</svg>
