<svg width="20" height="20" viewBox="0 0 20 20" fill="none" xmlns="http://www.w3.org/2000/svg">
<path d="M17 5.25146C17.9665 5.25146 18.75 6.03497 18.75 7.00146V9.00146C18.75 9.96796 17.9665 10.7515 17 10.7515H16.75V17.0015C16.75 17.968 15.9665 18.7515 15 18.7515H5C4.0335 18.7515 3.25 17.968 3.25 17.0015V10.7515H3C2.0335 10.7515 1.25 9.96796 1.25 9.00146V7.00146C1.25 6.03497 2.0335 5.25146 3 5.25146H17ZM4.75 10.7515V17.0015C4.75 17.1395 4.86193 17.2515 5 17.2515H15C15.1381 17.2515 15.25 17.1395 15.25 17.0015V10.7515H4.75ZM3 6.75146C2.86193 6.75146 2.75 6.86339 2.75 7.00146V9.00146C2.75 9.13954 2.86193 9.25146 3 9.25146H17C17.1381 9.25146 17.25 9.13954 17.25 9.00146V7.00146C17.25 6.86339 17.1381 6.75146 17 6.75146H3Z" fill="#101114"/>
<path d="M10.75 17.2515H9.25V5.75146H7.5C6.25736 5.75146 5.25 4.74411 5.25 3.50146C5.25 2.25882 6.25736 1.25146 7.5 1.25146H8C8.78898 1.25146 9.49851 1.58545 10 2.11768C10.5015 1.58545 11.211 1.25146 12 1.25146H12.5C13.7426 1.25146 14.75 2.25882 14.75 3.50146C14.75 4.74411 13.7426 5.75146 12.5 5.75146H10.75V17.2515ZM7.5 2.75146C7.08579 2.75146 6.75 3.08725 6.75 3.50146C6.75 3.91568 7.08579 4.25146 7.5 4.25146H9.25V4.00146C9.25 3.31111 8.69036 2.75146 8 2.75146H7.5ZM12 2.75146C11.3096 2.75146 10.75 3.31111 10.75 4.00146V4.25146H12.5C12.9142 4.25146 13.25 3.91568 13.25 3.50146C13.25 3.08725 12.9142 2.75146 12.5 2.75146H12Z" fill="url(#paint0_linear_4779_28007)"/>
<defs>
<linearGradient id="paint0_linear_4779_28007" x1="5.25" y1="9.25147" x2="14.7275" y2="9.71313" gradientUnits="userSpaceOnUse">
<stop stop-color="#2166E5"/>
<stop offset="0.5" stop-color="#1DD171"/>
</linearGradient>
</defs>
</svg>
