<svg width="20" height="20" viewBox="0 0 20 20" fill="none" xmlns="http://www.w3.org/2000/svg">
<path d="M6.66669 15.4079C6.66669 17.7323 9.52792 18.3348 12.9167 18.3348C16.2875 18.3348 19.1667 17.7537 19.1667 15.4284C19.1667 13.1039 16.3062 12.5015 12.9167 12.5015C9.54589 12.5015 6.66669 13.0826 6.66669 15.4079Z" stroke="#101114" stroke-width="1.5" stroke-linecap="round" stroke-linejoin="round"/>
<path d="M12.9166 9.16813C14.7672 9.16813 16.25 7.68462 16.25 5.83448C16.25 3.98435 14.7672 2.50146 12.9166 2.50146C11.0667 2.50146 9.58331 3.98435 9.58331 5.83448C9.58331 7.68462 11.0667 9.16813 12.9166 9.16813" stroke="#101114" stroke-width="1.5" stroke-linecap="round" stroke-linejoin="round"/>
<path d="M4.16632 10.0848C4.58053 10.0848 4.91632 10.4206 4.91632 10.8348V12.5018C4.91614 12.9159 4.58042 13.2518 4.16632 13.2518C3.75235 13.2516 3.4165 12.9158 3.41632 12.5018V10.8348C3.41632 10.4207 3.75224 10.085 4.16632 10.0848ZM2.50031 8.41782C2.91425 8.41801 3.25013 8.75387 3.25031 9.16782C3.25031 9.58191 2.91435 9.91762 2.50031 9.91782H0.833313C0.419249 9.91764 0.083313 9.58192 0.083313 9.16782C0.0834836 8.75386 0.419354 8.41799 0.833313 8.41782H2.50031ZM7.50031 8.41782C7.91425 8.41801 8.25013 8.75387 8.25031 9.16782C8.25031 9.58191 7.91435 9.91762 7.50031 9.91782H5.83331C5.41925 9.91764 5.08331 9.58192 5.08331 9.16782C5.08348 8.75386 5.41935 8.41799 5.83331 8.41782H7.50031ZM4.16632 5.08481C4.58053 5.08481 4.91632 5.42059 4.91632 5.83481V7.5018C4.91614 7.91586 4.58042 8.2518 4.16632 8.2518C3.75235 8.25165 3.4165 7.91576 3.41632 7.5018V5.83481C3.41632 5.42069 3.75224 5.08496 4.16632 5.08481Z" fill="url(#paint0_linear_4779_27997)"/>
<defs>
<linearGradient id="paint0_linear_4779_27997" x1="0.208313" y1="9.1683" x2="8.07237" y2="9.81348" gradientUnits="userSpaceOnUse">
<stop stop-color="#2166E5"/>
<stop offset="0.5" stop-color="#1DD171"/>
</linearGradient>
</defs>
</svg>
