<svg width="20" height="20" viewBox="0 0 20 20" fill="none" xmlns="http://www.w3.org/2000/svg">
<path d="M9.99933 5.01318C10.1618 5.01318 10.3176 5.07771 10.4324 5.19258C10.5473 5.30745 10.6118 5.46324 10.6118 5.62568V8.72668L11.8045 7.77293C11.867 7.72008 11.9394 7.68029 12.0175 7.65592C12.0957 7.63154 12.1779 7.62308 12.2594 7.63102C12.3408 7.63896 12.4199 7.66314 12.4918 7.70215C12.5638 7.74115 12.6272 7.79418 12.6783 7.85811C12.7294 7.92203 12.7672 7.99555 12.7894 8.07433C12.8117 8.1531 12.8179 8.23553 12.8077 8.31675C12.7975 8.39796 12.7712 8.47631 12.7302 8.54717C12.6893 8.61803 12.6345 8.67997 12.5692 8.72931L10.3817 10.4793C10.2731 10.5661 10.1383 10.6133 9.99933 10.6133C9.86036 10.6133 9.72552 10.5661 9.61696 10.4793L7.42946 8.72931C7.30252 8.6279 7.22106 8.48021 7.20301 8.31874C7.18496 8.15727 7.23179 7.99525 7.33321 7.86831C7.43462 7.74137 7.5823 7.65992 7.74377 7.64187C7.90524 7.62381 8.06727 7.67065 8.19421 7.77206L9.38683 8.72581V5.62568C9.38683 5.46324 9.45136 5.30745 9.56623 5.19258C9.6811 5.07771 9.83689 5.01318 9.99933 5.01318Z" fill="#101114"/>
<path d="M3.4375 3.00073C3.4375 2.5366 3.62187 2.09148 3.95006 1.7633C4.27825 1.43511 4.72337 1.25073 5.1875 1.25073L14.8125 1.25073C15.2766 1.25073 15.7217 1.43511 16.0499 1.7633C16.3781 2.09148 16.5625 2.5366 16.5625 3.00073V17.0007C16.5625 17.4649 16.3781 17.91 16.0499 18.2382C15.7217 18.5664 15.2766 18.7507 14.8125 18.7507H5.1875C4.72337 18.7507 4.27825 18.5664 3.95006 18.2382C3.62187 17.91 3.4375 17.4649 3.4375 17.0007V3.00073ZM5.1875 2.47573C5.04826 2.47573 4.91473 2.53104 4.81627 2.6295C4.71781 2.72796 4.6625 2.86149 4.6625 3.00073V13.5007H15.3375V3.00073C15.3375 2.86149 15.2822 2.72796 15.1837 2.6295C15.0853 2.53104 14.9517 2.47573 14.8125 2.47573H5.1875ZM15.3375 14.7257H4.6625V17.0007C4.6625 17.14 4.71781 17.2735 4.81627 17.372C4.91473 17.4704 5.04826 17.5257 5.1875 17.5257H14.8125C14.9517 17.5257 15.0853 17.4704 15.1837 17.372C15.2822 17.2735 15.3375 17.14 15.3375 17.0007V14.7257Z" fill="#101114"/>
<path d="M10.875 16.1257C10.875 16.2406 10.8524 16.3544 10.8084 16.4606C10.7644 16.5667 10.7 16.6632 10.6187 16.7445C10.5375 16.8257 10.441 16.8902 10.3348 16.9341C10.2287 16.9781 10.1149 17.0007 10 17.0007C9.88509 17.0007 9.77131 16.9781 9.66515 16.9341C9.55899 16.8902 9.46253 16.8257 9.38128 16.7445C9.30003 16.6632 9.23558 16.5667 9.19161 16.4606C9.14763 16.3544 9.125 16.2406 9.125 16.1257C9.125 15.8937 9.21719 15.6711 9.38128 15.507C9.54538 15.3429 9.76794 15.2507 10 15.2507C10.2321 15.2507 10.4546 15.3429 10.6187 15.507C10.7828 15.6711 10.875 15.8937 10.875 16.1257Z" fill="#101114"/>
</svg>
