<svg xmlns="http://www.w3.org/2000/svg" width="12" height="12" viewBox="0 0 12 12" fill="none">
<path fill-rule="evenodd" clip-rule="evenodd" d="M10.5455 10.0909H8.86545C10.1539 9.18545 11 7.69091 11 6C11 3.24303 8.75697 1 6 1C3.24303 1 1 3.24303 1 6C1 8.75697 3.24303 11 6 11C6.01212 11 6.02303 10.9982 6.03515 10.9982C6.03818 10.9982 6.04061 11 6.04364 11H10.5455C10.7964 11 11 10.7964 11 10.5455C11 10.2945 10.7964 10.0909 10.5455 10.0909ZM6.00006 2.9697C5.49824 2.9697 5.09097 3.37697 5.09097 3.87879C5.09097 4.38061 5.49824 4.78788 6.00006 4.78788C6.50188 4.78788 6.90915 4.38061 6.90915 3.87879C6.90915 3.37697 6.50188 2.9697 6.00006 2.9697ZM6.00006 7.09333C5.49824 7.09333 5.09097 7.50061 5.09097 8.00242C5.09097 8.50424 5.49824 8.91152 6.00006 8.91152C6.50188 8.91152 6.90915 8.50424 6.90915 8.00242C6.90915 7.50061 6.50188 7.09333 6.00006 7.09333ZM8.06188 5.03152C7.56006 5.03152 7.15279 5.43879 7.15279 5.94061C7.15279 6.44242 7.56006 6.8497 8.06188 6.8497C8.5637 6.8497 8.97097 6.44242 8.97097 5.94061C8.97097 5.43879 8.5637 5.03152 8.06188 5.03152ZM3.93824 5.03152C3.43642 5.03152 3.02915 5.43879 3.02915 5.94061C3.02915 6.44242 3.43642 6.8497 3.93824 6.8497C4.44006 6.8497 4.84733 6.44242 4.84733 5.94061C4.84733 5.43879 4.44006 5.03152 3.93824 5.03152Z" fill="#9BA0A8"/>
</svg>