<svg width="20" height="21" viewBox="0 0 20 21" fill="none" xmlns="http://www.w3.org/2000/svg">
<g id="&#231;&#188;&#150;&#231;&#187;&#132; 14">
<path id="Union" fill-rule="evenodd" clip-rule="evenodd" d="M16.5391 3.9596C14.6841 2.10461 11.6766 2.10461 9.82161 3.9596L8.05384 5.72737C7.76095 6.02026 7.76095 6.49514 8.05384 6.78803C8.34674 7.08092 8.82161 7.08092 9.1145 6.78803L10.8823 5.02026C12.1515 3.75106 14.2093 3.75106 15.4785 5.02026C16.7477 6.28947 16.7477 8.34725 15.4785 9.61646L13.7107 11.3842C13.4178 11.6771 13.4178 12.152 13.7107 12.4449C14.0036 12.7378 14.4785 12.7378 14.7714 12.4449L16.5391 10.6771C18.3941 8.82213 18.3941 5.81459 16.5391 3.9596ZM6.28608 9.61646C6.57897 9.32356 6.57897 8.84869 6.28608 8.5558C5.99318 8.2629 5.51831 8.2629 5.22542 8.5558L3.45765 10.3236C1.60266 12.1786 1.60266 15.1861 3.45765 17.0411C5.31264 18.8961 8.32017 18.8961 10.1752 17.0411L11.9429 15.2733C12.2358 14.9804 12.2358 14.5055 11.9429 14.2127C11.65 13.9198 11.1752 13.9198 10.8823 14.2127L9.1145 15.9804C7.8453 17.2496 5.78751 17.2496 4.51831 15.9804C3.2491 14.7112 3.2491 12.6534 4.51831 11.3842L6.28608 9.61646ZM12.6502 8.90912C12.943 8.61623 12.943 8.14135 12.6502 7.84846C12.3573 7.55557 11.8824 7.55557 11.5895 7.84846L7.34719 12.0908C7.0543 12.3836 7.0543 12.8585 7.34719 13.1514C7.64009 13.4443 8.11496 13.4443 8.40786 13.1514L12.6502 8.90912Z" fill="white"/>
</g>
</svg>
