<svg width="52" height="36" viewBox="0 0 52 36" fill="none" xmlns="http://www.w3.org/2000/svg">
<g id="Frame 37416">
<path id="Subtract" fill-rule="evenodd" clip-rule="evenodd" d="M5.20117 6.55206C5.20117 3.79505 7.43617 1.56006 10.1932 1.56006H41.8092C44.5662 1.56006 46.8012 3.79505 46.8012 6.55206V24.866C46.8012 27.623 44.5662 29.858 41.8092 29.858H33.669C32.4791 29.858 31.3283 30.2831 30.424 31.0566L27.6237 33.4521C26.6896 34.2512 25.3128 34.2512 24.3787 33.4521L21.5783 31.0566C20.6741 30.2831 19.5233 29.858 18.3333 29.858H10.1932C7.43616 29.858 5.20117 27.623 5.20117 24.866V6.55206ZM26.0016 11.5442C26.0016 13.3822 24.5116 14.8722 22.6736 14.8722C20.8356 14.8722 19.3456 13.3822 19.3456 11.5442C19.3456 9.70617 20.8356 8.21617 22.6736 8.21617C24.5116 8.21617 26.0016 9.70617 26.0016 11.5442ZM19.7616 16.12C17.9236 16.12 16.4336 17.6099 16.4336 19.448V21.112C16.4336 22.031 17.1786 22.776 18.0976 22.776H27.2496C28.1686 22.776 28.9136 22.031 28.9136 21.112V19.448C28.9136 17.61 27.4236 16.12 25.5856 16.12H19.7616ZM28.4961 13.2078C28.4961 12.5185 29.0548 11.9598 29.7441 11.9598H30.5763V11.1282C30.5763 10.439 31.135 9.88021 31.8243 9.88021C32.5135 9.88021 33.0723 10.439 33.0723 11.1282V11.9598H33.9041C34.5933 11.9598 35.1521 12.5185 35.1521 13.2078C35.1521 13.8971 34.5933 14.4558 33.9041 14.4558H33.0723V15.2882C33.0723 15.9775 32.5135 16.5362 31.8243 16.5362C31.135 16.5362 30.5763 15.9775 30.5763 15.2882V14.4558H29.7441C29.0548 14.4558 28.4961 13.8971 28.4961 13.2078Z" fill="white"/>
</g>
</svg>
