<svg width="20" height="20" viewBox="0 0 20 20" fill="none" xmlns="http://www.w3.org/2000/svg">
<path d="M9.99982 5.01251C10.1623 5.01251 10.3181 5.07704 10.4329 5.19191C10.5478 5.30678 10.6123 5.46257 10.6123 5.62501V8.72601L11.8049 7.77226C11.8674 7.71941 11.9399 7.67962 12.018 7.65525C12.0962 7.63087 12.1784 7.6224 12.2599 7.63034C12.3413 7.63829 12.4204 7.66247 12.4923 7.70148C12.5643 7.74048 12.6277 7.79351 12.6788 7.85744C12.7299 7.92136 12.7677 7.99488 12.7899 8.07366C12.8122 8.15243 12.8184 8.23486 12.8082 8.31608C12.798 8.39729 12.7717 8.47564 12.7307 8.5465C12.6897 8.61736 12.635 8.67929 12.5697 8.72864L10.3822 10.4786C10.2736 10.5654 10.1388 10.6127 9.99982 10.6127C9.86085 10.6127 9.72601 10.5654 9.61745 10.4786L7.42995 8.72864C7.30301 8.62723 7.22155 8.47954 7.2035 8.31807C7.18545 8.1566 7.23228 7.99458 7.3337 7.86764C7.43511 7.7407 7.58279 7.65924 7.74426 7.64119C7.90573 7.62314 8.06776 7.66998 8.1947 7.77139L9.38732 8.72514V5.62501C9.38732 5.46257 9.45185 5.30678 9.56672 5.19191C9.68158 5.07704 9.83738 5.01251 9.99982 5.01251Z" fill="#101114"/>
<path d="M3.4375 3C3.4375 2.53587 3.62187 2.09075 3.95006 1.76256C4.27825 1.43437 4.72337 1.25 5.1875 1.25L14.8125 1.25C15.2766 1.25 15.7217 1.43437 16.0499 1.76256C16.3781 2.09075 16.5625 2.53587 16.5625 3V17C16.5625 17.4641 16.3781 17.9092 16.0499 18.2374C15.7217 18.5656 15.2766 18.75 14.8125 18.75H5.1875C4.72337 18.75 4.27825 18.5656 3.95006 18.2374C3.62187 17.9092 3.4375 17.4641 3.4375 17V3ZM5.1875 2.475C5.04826 2.475 4.91473 2.53031 4.81627 2.62877C4.71781 2.72723 4.6625 2.86076 4.6625 3V13.5H15.3375V3C15.3375 2.86076 15.2822 2.72723 15.1837 2.62877C15.0853 2.53031 14.9517 2.475 14.8125 2.475H5.1875ZM15.3375 14.725H4.6625V17C4.6625 17.1392 4.71781 17.2728 4.81627 17.3712C4.91473 17.4697 5.04826 17.525 5.1875 17.525H14.8125C14.9517 17.525 15.0853 17.4697 15.1837 17.3712C15.2822 17.2728 15.3375 17.1392 15.3375 17V14.725Z" fill="#101114"/>
<path d="M10.875 16.125C10.875 16.2399 10.8524 16.3537 10.8084 16.4598C10.7644 16.566 10.7 16.6625 10.6187 16.7437C10.5375 16.825 10.441 16.8894 10.3348 16.9334C10.2287 16.9774 10.1149 17 10 17C9.88509 17 9.77131 16.9774 9.66515 16.9334C9.55899 16.8894 9.46253 16.825 9.38128 16.7437C9.30003 16.6625 9.23558 16.566 9.19161 16.4598C9.14763 16.3537 9.125 16.2399 9.125 16.125C9.125 15.8929 9.21719 15.6704 9.38128 15.5063C9.54538 15.3422 9.76794 15.25 10 15.25C10.2321 15.25 10.4546 15.3422 10.6187 15.5063C10.7828 15.6704 10.875 15.8929 10.875 16.125Z" fill="#101114"/>
</svg>
