<svg width="20" height="20" viewBox="0 0 20 20" fill="none" xmlns="http://www.w3.org/2000/svg">
<g id="icon/refresh">
<path id="Union" fill-rule="evenodd" clip-rule="evenodd" d="M3.75 10C3.75 6.54822 6.54822 3.75 10 3.75C12.0621 3.75 13.8911 4.74796 15.0306 6.29036H13.707C13.2928 6.29036 12.957 6.62615 12.957 7.04036C12.957 7.45458 13.2928 7.79036 13.707 7.79036H16.667C17.0812 7.79036 17.417 7.45458 17.417 7.04036V3.70703C17.417 3.29282 17.0812 2.95703 16.667 2.95703C16.2528 2.95703 15.917 3.29282 15.917 3.70703V4.99469C14.4963 3.31691 12.3728 2.25 10 2.25C5.71979 2.25 2.25 5.71979 2.25 10C2.25 14.2802 5.71979 17.75 10 17.75C13.5119 17.75 16.4764 15.4147 17.429 12.2139C17.5471 11.8169 17.3211 11.3993 16.9241 11.2812C16.5271 11.163 16.1094 11.3891 15.9913 11.7861C15.2228 14.3683 12.8302 16.25 10 16.25C6.54822 16.25 3.75 13.4518 3.75 10Z" fill="#07B84E"/>
</g>
</svg>
